<svg width="400" height="286" xmlns="http://www.w3.org/2000/svg"><path d="M0 142.7L0 285.3 67.1 285.3 134.2 285.3 133.8 284.1C133.3 282.5 134.3 281.9 137.3 281.9 163.2 281.8 193.4 264.2 205.4 242.2 206.1 241 207.1 239.2 207.6 238.2 213.3 228.6 216.5 210.9 215.1 196.6 213 173.3 203.2 156.1 185.4 144 178.7 139.5 178.7 139.7 183.7 135.9 205.4 119.4 216.7 87 209.4 62.5 200 30.8 175.6 8.3 146.2 4.2 138.5 3.1 153.3 2.9 231.3 2.9 323.8 2.9 320.8 2.8 333.5 5.7 371.7 14.6 393.8 43.1 393.7 83.4 393.7 103.3 386.9 118 371 133 363.4 140.1 363.5 139.4 369.3 143.2 388.5 156 397.4 174.5 397.4 201.4 397.3 244.7 373.4 273.4 330.7 281.5 321.1 283.3 309 283.6 228.2 283.8 169.4 283.9 147.1 284.2 146.3 284.6 145.5 285.1 177.5 285.3 272.6 285.3L400 285.3 400 142.7 400 0 200 0 0 0 0 142.7M121.2 65.3C142.7 71 144 102.1 122.9 109 119.5 110.1 118 110.1 94.8 110.1L70.3 110.1 70 108.7C69.4 106.3 69.6 66.7 70.2 65.5 71 64.1 115.7 63.9 121.2 65.3M258.1 64.9C257.5 65.3 257.4 70.2 257.5 87.6L257.6 109.8 280.5 110C309.2 110.2 312.9 109.5 318.8 103.1 329.7 91.3 325.1 71.5 310.3 66.2 306.5 64.8 259.9 63.7 258.1 64.9M125.5 173C137 177.1 141.2 183.4 141.2 196.6 141.2 210.4 135.4 218.2 123.3 220.8 117.8 221.9 71.2 221.6 70.4 220.5 69.1 218.8 69.3 173.1 70.6 172.4 72.4 171.3 122.3 171.9 125.5 173M257.7 172.7C256.6 173.8 257.3 220.2 258.5 220.8 259.9 221.6 300.3 221.6 306.7 220.9 333.5 217.8 337.2 180 311.4 173.1 308.2 172.3 258.5 171.9 257.7 172.7M138.2 285.1C138.8 285.3 139.7 285.3 140.2 285.1 140.8 285 140.3 284.9 139.2 284.9 138.1 284.9 137.7 285 138.2 285.1" fill="none"/><path d="M144.5 3.3C144 3.7 144.5 3.9 146.2 4.2 175.6 8.3 200 30.8 209.4 62.5 216.7 87 205.4 119.4 183.7 135.9 178.7 139.7 178.7 139.5 185.4 144 203.2 156.1 213 173.3 215.1 196.6 216.5 210.9 213.3 228.6 207.6 238.2 207.1 239.2 206.1 241 205.4 242.2 193.4 264.2 163.2 281.8 137.3 281.9 134.4 281.9 133.3 282.5 133.8 284 134.1 285.1 134.5 285.1 140 284.9 161.8 284.1 191.6 283.7 247.6 283.7 320.3 283.6 324.8 283.4 339.3 279.6 367.7 272.1 387.2 253 394.8 225.1 397.7 214.3 398.5 194.3 396.4 184.3 392.6 166.6 383.4 152.6 369.3 143.2 363.5 139.4 363.4 140.1 371 133 389.6 115.6 395.9 97.9 393.1 72 389 34.1 364.6 10.3 323.2 3.8 316.8 2.8 146 2.4 144.5 3.3M70.2 65.5C69.6 66.7 69.4 106.3 70 108.7L70.3 110.1 94.8 110.1C118 110.1 119.5 110.1 122.9 109 144 102.1 142.7 71 121.2 65.3 115.7 63.9 71 64.1 70.2 65.5M310.3 66.2C325.1 71.5 329.7 91.3 318.8 103.1 312.9 109.5 309.2 110.2 280.5 110L257.6 109.8 257.5 87.6C257.4 70.2 257.5 65.3 258.1 64.9 259.9 63.7 306.5 64.8 310.3 66.2M70.6 172.4C69.3 173.1 69.1 218.8 70.4 220.5 71.2 221.6 117.8 221.9 123.3 220.8 127.6 219.9 132.1 217.6 135 214.8 143.9 206.1 143.8 187.1 134.8 178.4 132 175.6 130.5 174.8 125.5 173 122.3 171.9 72.4 171.3 70.6 172.4M311.4 173.1C332.6 178.8 334.9 211.5 314.6 219.1 308.8 221.3 262 222.7 258.5 220.8 257.3 220.2 256.6 173.8 257.7 172.7 258.5 171.9 308.2 172.3 311.4 173.1" fill="#1976d2"/></svg>
