<svg width="400" height="400" xmlns="http://www.w3.org/2000/svg">
	<!-- <g>
		<title>Hexagon</title>
		<path d="m195,2.88675a10,10 0 0 1 10,0l163.20508,94.2265a10,10 0 0 1 5,8.66025l0,188.453a10,10 0 0 1 -5,8.66025l-163.20508,94.2265a10,10 0 0 1 -10,0l-163.20508,-94.2265a10,10 0 0 1 -5,-8.66025l0,-188.453a10,10 0 0 1 5,-8.66025l163.20508,-94.2265z" id="svg_1" transform="rotate(90, 200, 200)" fill="#FFF176" stroke-width="2" stroke="#FFEB3B"/>
	</g> -->
	<g>
		<title>Logo</title>
		<path d="m90,300 l40,0 l-60,-100 l60,-100 l-40,0 l-60,100 z" stroke-width="0" stroke="none" fill="#2196f3" />
		<path d="m270,300 l40,0 l60,-100 l-60,-100 l-40,0 l60,100 z" stroke-width="0" stroke="none" fill="#2196f3" />
		<path d="m150,300 l40,0 l60,-200 l-40,0 z" stroke-width="0" stroke="none" fill="#2196f3" mask="url(#void)" />
		<path d="m254.5,315 l-40,0 l-69,-230 l40,0 z" stroke-width="0" stroke="none" fill="#4caf50" />
		<!-- Intersection path -->
		<defs>
			<mask id="void">
				<rect width="100%" height="100%" fill="#fff" />
				<path d="m257.5,315 l-46,0 l-69,-230 l46,0 z" stroke-width="0" stroke="none" fill="#000" />
			</mask>
		</defs>
	</g>
</svg>
